<svg style="display:none">
  <symbol id="chevronRight" viewBox="0 0 16 16" width="16" height="16" fill="currentColor" xmlns="http://www.w3.org/2000/svg">
    <path d="M2.25781 14.1211C2.47656 14.1211 2.66797 14.0391 2.81836 13.8887L8.14355 8.67969C8.32812 8.49512 8.41699 8.29688 8.41699 8.06445C8.41699 7.8252 8.32812 7.62012 8.14355 7.44922L2.81836 2.24023C2.66797 2.08984 2.4834 2.00781 2.25781 2.00781C1.81348 2.00781 1.46484 2.35645 1.46484 2.80078C1.46484 3.0127 1.55371 3.21777 1.7041 3.375L6.50977 8.05762L1.7041 12.7539C1.55371 12.9043 1.46484 13.1094 1.46484 13.3281C1.46484 13.7725 1.81348 14.1211 2.25781 14.1211ZM8.36914 14.1211C8.58789 14.1211 8.77246 14.0391 8.92285 13.8887L14.2549 8.67969C14.4395 8.49512 14.5283 8.29688 14.5283 8.06445C14.5283 7.8252 14.4326 7.62012 14.2549 7.44922L8.92285 2.24023C8.77246 2.08984 8.58789 2.00781 8.36914 2.00781C7.9248 2.00781 7.56934 2.35645 7.56934 2.80078C7.56934 3.0127 7.66504 3.21777 7.81543 3.375L12.6211 8.05762L7.81543 12.7539C7.66504 12.9043 7.56934 13.1094 7.56934 13.3281C7.56934 13.7725 7.9248 14.1211 8.36914 14.1211Z"></path>
  </symbol>
  <symbol id="menu" viewBox="0 0 14 14" width="16" height="16" fill="currentColor" xmlns="http://www.w3.org/2000/svg">
   <path d="M0,1.25 L14,1.25 L14,2.75 L0,2.75 L0,1.25 Z M0,6.25 L14,6.25 L14,7.75 L0,7.75 L0,6.25 Z M0,11.25 L14,11.25 L14,12.75 L0,12.75 L0,11.25 Z"></path>
  </symbol>
  <symbol id="chevronLeft" viewBox="0 0 16 16" width="16" height="16" fill="currentColor" xmlns="http://www.w3.org/2000/svg">
    <path d="M7.07031 13.8887C7.2207 14.0391 7.40527 14.1211 7.62402 14.1211C8.06836 14.1211 8.41699 13.7725 8.41699 13.3281C8.41699 13.1094 8.32812 12.9043 8.17773 12.7539L3.37207 8.05762L8.17773 3.375C8.32812 3.21777 8.41699 3.0127 8.41699 2.80078C8.41699 2.35645 8.06836 2.00781 7.62402 2.00781C7.40527 2.00781 7.2207 2.08984 7.07031 2.24023L1.73828 7.44922C1.56055 7.62012 1.46484 7.8252 1.46484 8.06445C1.46484 8.29688 1.55371 8.49512 1.73828 8.67969L7.07031 13.8887ZM13.1748 13.8887C13.3252 14.0391 13.5098 14.1211 13.7354 14.1211C14.1797 14.1211 14.5283 13.7725 14.5283 13.3281C14.5283 13.1094 14.4395 12.9043 14.2891 12.7539L9.4834 8.05762L14.2891 3.375C14.4395 3.21777 14.5283 3.0127 14.5283 2.80078C14.5283 2.35645 14.1797 2.00781 13.7354 2.00781C13.5098 2.00781 13.3252 2.08984 13.1748 2.24023L7.84961 7.44922C7.66504 7.62012 7.57617 7.8252 7.56934 8.06445C7.56934 8.29688 7.66504 8.49512 7.84961 8.67969L13.1748 13.8887Z"></path>
  </symbol>
  <symbol id="search" viewBox="0 0 16 16" width="16" height="16" fill="currentColor" xmlns="http://www.w3.org/2000/svg">
    <path d="M5.92239093,0.540000021 C2.94055203,0.540000021 0.5,2.98052217 0.5,5.96238099 C0.5,8.9442199 2.94055203,11.384762 5.92239093,11.384762 C7.02329179,11.384762 8.05258749,11.0564678 8.91032559,10.4866744 L12.1460745,13.6802311 C12.5695899,14.1037465 13.2589477,14.1037465 13.6823635,13.6802311 C14.1058788,13.2567158 14.1058788,12.5730353 13.6823635,12.1495199 L10.4410368,8.95033558 C11.0107904,8.09259747 11.3447619,7.06329182 11.3447619,5.96238099 C11.3447619,2.98052217 8.90420992,0.540000021 5.92239093,0.540000021 Z M5.92239093,2.70895241 C7.7320027,2.70895241 9.17580956,4.15272939 9.17580956,5.96238099 C9.17580956,7.77201268 7.7320027,9.21581954 5.92239093,9.21581954 C4.11275925,9.21581954 2.66895239,7.77201268 2.66895239,5.96238099 C2.66895239,4.15272939 4.11275925,2.70895241 5.92239093,2.70895241 Z"></path>
  </symbol>
  <symbol id="clock" viewBox="0 0 14 14" width="14" height="14" fill="currentColor" xmlns="http://www.w3.org/2000/svg">
    <path d="M7.01356 14.0001C8.8042 14.0001 10.5958 13.3107 11.9575 11.9324C14.681 9.21201 14.6808 4.7603 11.9571 2.04013C9.23336 -0.680043 4.77573 -0.680043 2.05199 2.04013C0.727519 3.36277 0 5.13301 0 6.99553C0 8.8764 0.727811 10.6285 2.05199 11.9509C3.43207 13.3106 5.22243 14.0001 7.01356 14.0001ZM3.72947 7.00914V8.461V8.65543H3.92382H5.34563H8.2794H8.4738V8.461V5.52541V3.37947V3.18502H8.2794H6.82747H6.63307V3.37947V6.81467H3.92382H3.72947V7.00914ZM1.83985 6.99553C1.83985 5.61698 2.38099 4.32597 3.36061 3.3477C5.36746 1.34337 8.64803 1.34062 10.6585 3.33944C10.6613 3.34219 10.6639 3.34494 10.6668 3.3477C12.676 5.3546 12.6763 8.63642 10.6668 10.6434C8.65705 12.6504 5.37031 12.6504 3.36061 10.6434C2.38099 9.66506 1.83985 8.37408 1.83985 6.99553Z"></path>
  </symbol>
  <symbol id="largeClock" viewBox="0 0 20 20" width="20" height="20" fill="currentColor" xmlns="http://www.w3.org/2000/svg">
    <path d="M10.0781 18.1562C14.5078 18.1562 18.1641 14.5 18.1641 10.0781C18.1641 5.65625 14.5 2 10.0703 2C5.64844 2 2 5.65625 2 10.0781C2 14.5 5.65625 18.1562 10.0781 18.1562ZM10.0781 16.5469C6.49219 16.5469 3.625 13.6641 3.625 10.0781C3.625 6.49219 6.49219 3.61719 10.0703 3.61719C13.6562 3.61719 16.5391 6.49219 16.5469 10.0781C16.5547 13.6641 13.6641 16.5469 10.0781 16.5469ZM6.14062 11.0625H10.0703C10.4297 11.0625 10.7031 10.7891 10.7031 10.4375V5.32812C10.7031 4.97656 10.4297 4.70312 10.0703 4.70312C9.72656 4.70312 9.45312 4.97656 9.45312 5.32812V9.8125H6.14062C5.78906 9.8125 5.51562 10.0859 5.51562 10.4375C5.51562 10.7891 5.78906 11.0625 6.14062 11.0625Z"></path>
  </symbol>
  <symbol id="github" viewBox="0 0 24 24" xmlns="http://www.w3.org/2000/svg">
    <path d="M12 0c-6.626 0-12 5.373-12 12 0 5.302 3.438 9.8 8.207 11.387.599.111.793-.261.793-.577v-2.234c-3.338.726-4.033-1.416-4.033-1.416-.546-1.387-1.333-1.756-1.333-1.756-1.089-.745.083-.729.083-.729 1.205.084 1.839 1.237 1.839 1.237 1.07 1.834 2.807 1.304 3.492.997.107-.775.418-1.305.762-1.604-2.665-.305-5.467-1.334-5.467-5.931 0-1.311.469-2.381 1.236-3.221-.124-.303-.535-1.524.117-3.176 0 0 1.008-.322 3.301 1.23.957-.266 1.983-.399 3.003-.404 1.02.005 2.047.138 3.006.404 2.291-1.552 3.297-1.23 3.297-1.23.653 1.653.242 2.874.118 3.176.77.84 1.235 1.911 1.235 3.221 0 4.609-2.807 5.624-5.479 5.921.43.372.823 1.102.823 2.222v3.293c0 .319.192.694.801.576 4.765-1.589 8.199-6.086 8.199-11.386 0-6.627-5.373-12-12-12z"/>
  </symbol>
  <symbol id="linkedin" viewBox="0 0 24 24" fill="#0a66c2" xmlns="http://www.w3.org/2000/svg">
    <path d="M20.5 2h-17A1.5 1.5 0 002 3.5v17A1.5 1.5 0 003.5 22h17a1.5 1.5 0 001.5-1.5v-17A1.5 1.5 0 0020.5 2zM8 19H5v-9h3zM6.5 8.25A1.75 1.75 0 118.3 6.5a1.78 1.78 0 01-1.8 1.75zM19 19h-3v-4.74c0-1.42-.6-1.93-1.38-1.93A1.74 1.74 0 0013 14.19a.66.66 0 000 .14V19h-3v-9h2.9v1.3a3.11 3.11 0 012.7-1.4c1.55 0 3.36.86 3.36 3.66z"></path>
  </symbol>
  <symbol id="dev.to" xmlns="http://www.w3.org/2000/svg" 
	 width="14" height="14" viewBox="0 0 100 80">
    <path fill="#050505" opacity="1.000000" stroke="none" 
      d="
    M62.000000,5.001812 
      C71.485847,5.002175 80.472015,4.957407 89.457436,5.019605 
      C94.963211,5.057717 96.964020,7.040485 96.977448,12.562813 
      C97.023567,31.532829 97.023979,50.503098 96.977066,69.473106 
      C96.963478,74.969513 94.948441,76.969971 89.419975,76.978325 
      C63.793716,77.017059 38.167339,77.018517 12.541086,76.979553 
      C7.037885,76.971191 5.033958,74.956306 5.020592,69.437119 
      C4.974650,50.467106 4.973929,31.496834 5.021079,12.526823 
      C5.034737,7.031604 7.051033,5.036623 12.577186,5.020150 
      C28.884665,4.971539 45.192379,5.002181 62.000000,5.001812 
    M29.093344,25.556698 
      C26.516294,25.556698 23.939245,25.556698 21.170914,25.556698 
      C21.170914,31.327879 21.170914,36.307919 21.170914,41.287956 
      C21.170914,46.392330 21.170914,51.496704 21.170914,57.020714 
      C24.329863,57.020714 26.952911,57.078915 29.572552,57.009132 
      C35.886150,56.840958 39.016594,53.735580 39.151623,47.440960 
      C39.237160,43.453293 39.210938,39.461727 39.158241,35.472923 
      C39.071880,28.936226 36.716198,26.436251 29.093344,25.556698 
    M67.207352,30.284431 
      C66.899567,25.472750 64.241135,24.730400 59.943035,26.120478 
      C62.306480,35.001266 64.432716,43.717087 67.057716,52.280010 
      C67.625641,54.132618 69.762337,56.061451 71.617233,56.727364 
      C72.544731,57.060341 75.341705,54.890827 75.794235,53.398624 
      C78.531189,44.373692 80.835045,35.217419 83.375038,25.765125 
      C80.974419,25.765125 79.188187,25.765125 77.225815,25.765125 
      C75.433548,32.413979 73.668304,38.962574 71.581924,46.702503 
      C69.977531,40.658203 68.703888,35.859924 67.207352,30.284431 
    M52.472794,57.010094 
      C54.035561,57.010094 55.598328,57.010094 57.482094,57.010094 
      C57.268963,54.672451 57.127163,53.117149 56.937576,51.037701 
      C53.476353,51.037701 50.429489,51.037701 47.579052,51.037701 
      C47.579052,48.398727 47.579052,46.336937 47.579052,44.292175 
      C49.689510,44.088570 51.433929,43.920280 53.481979,43.722694 
      C53.349873,41.793949 53.243080,40.234810 53.142506,38.766495 
      C50.925594,38.506916 49.189339,38.303616 47.554455,38.112186 
      C47.554455,35.636978 47.554455,33.572010 47.554455,31.044064 
      C50.967068,31.044064 54.047798,31.044064 57.415695,31.044064 
      C57.277603,28.982243 57.172661,27.415333 57.049496,25.576351 
      C53.334682,25.576351 50.027199,25.633261 46.722534,25.560951 
      C43.145844,25.482691 41.598827,27.188597 41.635468,30.716303 
      C41.704483,37.361221 41.824467,44.013290 41.594967,50.651035 
      C41.431736,55.372051 43.253296,57.518536 48.027241,57.027294 
      C49.178028,56.908875 50.351406,57.009991 52.472794,57.010094 
    z"/>
    <path fill="#F0F0F0" opacity="1.000000" stroke="none" 
      d="
    M29.513077,25.558311 
      C36.716198,26.436251 39.071880,28.936226 39.158241,35.472923 
      C39.210938,39.461727 39.237160,43.453293 39.151623,47.440960 
      C39.016594,53.735580 35.886150,56.840958 29.572552,57.009132 
      C26.952911,57.078915 24.329863,57.020714 21.170914,57.020714 
      C21.170914,51.496704 21.170914,46.392330 21.170914,41.287956 
      C21.170914,36.307919 21.170914,31.327879 21.170914,25.556698 
      C23.939245,25.556698 26.516294,25.556698 29.513077,25.558311 
    M32.575726,50.346386 
      C32.920208,45.796593 33.254932,41.246033 33.611855,36.697216 
      C33.985039,31.941065 31.658497,30.519001 27.159298,31.425596 
      C27.159298,38.073196 27.159298,44.586887 27.159298,51.184494 
      C28.290123,51.237934 29.113737,51.343590 29.927938,51.294170 
      C30.576668,51.254803 31.213911,51.026218 32.575726,50.346386 
    z"/>
    <path fill="#F0F0F0" opacity="1.000000" stroke="none" 
      d="
    M67.318794,30.673038 
      C68.703888,35.859924 69.977531,40.658203 71.581924,46.702503 
      C73.668304,38.962574 75.433548,32.413979 77.225815,25.765125 
      C79.188187,25.765125 80.974419,25.765125 83.375038,25.765125 
      C80.835045,35.217419 78.531189,44.373692 75.794235,53.398624 
      C75.341705,54.890827 72.544731,57.060341 71.617233,56.727364 
      C69.762337,56.061451 67.625641,54.132618 67.057716,52.280010 
      C64.432716,43.717087 62.306480,35.001266 59.943035,26.120478 
      C64.241135,24.730400 66.899567,25.472750 67.318794,30.673038 
    z"/>
    <path fill="#F5F5F5" opacity="1.000000" stroke="none" 
      d="
    M51.993591,57.010124 
      C50.351406,57.009991 49.178028,56.908875 48.027241,57.027294 
      C43.253296,57.518536 41.431736,55.372051 41.594967,50.651035 
      C41.824467,44.013290 41.704483,37.361221 41.635468,30.716303 
      C41.598827,27.188597 43.145844,25.482691 46.722534,25.560951 
      C50.027199,25.633261 53.334682,25.576351 57.049496,25.576351 
      C57.172661,27.415333 57.277603,28.982243 57.415695,31.044064 
      C54.047798,31.044064 50.967068,31.044064 47.554455,31.044064 
      C47.554455,33.572010 47.554455,35.636978 47.554455,38.112186 
      C49.189339,38.303616 50.925594,38.506916 53.142506,38.766495 
      C53.243080,40.234810 53.349873,41.793949 53.481979,43.722694 
      C51.433929,43.920280 49.689510,44.088570 47.579052,44.292175 
      C47.579052,46.336937 47.579052,48.398727 47.579052,51.037701 
      C50.429489,51.037701 53.476353,51.037701 56.937576,51.037701 
      C57.127163,53.117149 57.268963,54.672451 57.482094,57.010094 
      C55.598328,57.010094 54.035561,57.010094 51.993591,57.010124 
    z"/>
    <path fill="#131313" opacity="1.000000" stroke="none" 
      d="
    M32.215988,50.614010 
      C31.213911,51.026218 30.576668,51.254803 29.927938,51.294170 
      C29.113737,51.343590 28.290123,51.237934 27.159298,51.184494 
      C27.159298,44.586887 27.159298,38.073196 27.159298,31.425596 
      C31.658497,30.519001 33.985039,31.941065 33.611855,36.697216 
      C33.254932,41.246033 32.920208,45.796593 32.215988,50.614010 
    z"/>
  </symbol>
</svg>