<svg style="display:none">
  <symbol id="chevronRight" viewBox="0 0 16 16" width="16" height="16" fill="currentColor" xmlns="http://www.w3.org/2000/svg">
    <path d="M2.25781 14.1211C2.47656 14.1211 2.66797 14.0391 2.81836 13.8887L8.14355 8.67969C8.32812 8.49512 8.41699 8.29688 8.41699 8.06445C8.41699 7.8252 8.32812 7.62012 8.14355 7.44922L2.81836 2.24023C2.66797 2.08984 2.4834 2.00781 2.25781 2.00781C1.81348 2.00781 1.46484 2.35645 1.46484 2.80078C1.46484 3.0127 1.55371 3.21777 1.7041 3.375L6.50977 8.05762L1.7041 12.7539C1.55371 12.9043 1.46484 13.1094 1.46484 13.3281C1.46484 13.7725 1.81348 14.1211 2.25781 14.1211ZM8.36914 14.1211C8.58789 14.1211 8.77246 14.0391 8.92285 13.8887L14.2549 8.67969C14.4395 8.49512 14.5283 8.29688 14.5283 8.06445C14.5283 7.8252 14.4326 7.62012 14.2549 7.44922L8.92285 2.24023C8.77246 2.08984 8.58789 2.00781 8.36914 2.00781C7.9248 2.00781 7.56934 2.35645 7.56934 2.80078C7.56934 3.0127 7.66504 3.21777 7.81543 3.375L12.6211 8.05762L7.81543 12.7539C7.66504 12.9043 7.56934 13.1094 7.56934 13.3281C7.56934 13.7725 7.9248 14.1211 8.36914 14.1211Z"></path>
  </symbol>
  <symbol id="menu" viewBox="0 0 14 14" width="16" height="16" fill="currentColor" xmlns="http://www.w3.org/2000/svg">
   <path d="M0,1.25 L14,1.25 L14,2.75 L0,2.75 L0,1.25 Z M0,6.25 L14,6.25 L14,7.75 L0,7.75 L0,6.25 Z M0,11.25 L14,11.25 L14,12.75 L0,12.75 L0,11.25 Z"></path>
  </symbol>
  <symbol id="chevronLeft" viewBox="0 0 16 16" width="16" height="16" fill="currentColor" xmlns="http://www.w3.org/2000/svg">
    <path d="M7.07031 13.8887C7.2207 14.0391 7.40527 14.1211 7.62402 14.1211C8.06836 14.1211 8.41699 13.7725 8.41699 13.3281C8.41699 13.1094 8.32812 12.9043 8.17773 12.7539L3.37207 8.05762L8.17773 3.375C8.32812 3.21777 8.41699 3.0127 8.41699 2.80078C8.41699 2.35645 8.06836 2.00781 7.62402 2.00781C7.40527 2.00781 7.2207 2.08984 7.07031 2.24023L1.73828 7.44922C1.56055 7.62012 1.46484 7.8252 1.46484 8.06445C1.46484 8.29688 1.55371 8.49512 1.73828 8.67969L7.07031 13.8887ZM13.1748 13.8887C13.3252 14.0391 13.5098 14.1211 13.7354 14.1211C14.1797 14.1211 14.5283 13.7725 14.5283 13.3281C14.5283 13.1094 14.4395 12.9043 14.2891 12.7539L9.4834 8.05762L14.2891 3.375C14.4395 3.21777 14.5283 3.0127 14.5283 2.80078C14.5283 2.35645 14.1797 2.00781 13.7354 2.00781C13.5098 2.00781 13.3252 2.08984 13.1748 2.24023L7.84961 7.44922C7.66504 7.62012 7.57617 7.8252 7.56934 8.06445C7.56934 8.29688 7.66504 8.49512 7.84961 8.67969L13.1748 13.8887Z"></path>
  </symbol>
  <symbol id="search" viewBox="0 0 16 16" width="16" height="16" fill="currentColor" xmlns="http://www.w3.org/2000/svg">
    <path d="M5.92239093,0.540000021 C2.94055203,0.540000021 0.5,2.98052217 0.5,5.96238099 C0.5,8.9442199 2.94055203,11.384762 5.92239093,11.384762 C7.02329179,11.384762 8.05258749,11.0564678 8.91032559,10.4866744 L12.1460745,13.6802311 C12.5695899,14.1037465 13.2589477,14.1037465 13.6823635,13.6802311 C14.1058788,13.2567158 14.1058788,12.5730353 13.6823635,12.1495199 L10.4410368,8.95033558 C11.0107904,8.09259747 11.3447619,7.06329182 11.3447619,5.96238099 C11.3447619,2.98052217 8.90420992,0.540000021 5.92239093,0.540000021 Z M5.92239093,2.70895241 C7.7320027,2.70895241 9.17580956,4.15272939 9.17580956,5.96238099 C9.17580956,7.77201268 7.7320027,9.21581954 5.92239093,9.21581954 C4.11275925,9.21581954 2.66895239,7.77201268 2.66895239,5.96238099 C2.66895239,4.15272939 4.11275925,2.70895241 5.92239093,2.70895241 Z"></path>
  </symbol>
  <symbol id="clock" viewBox="0 0 14 14" width="14" height="14" fill="currentColor" xmlns="http://www.w3.org/2000/svg">
    <path d="M7.01356 14.0001C8.8042 14.0001 10.5958 13.3107 11.9575 11.9324C14.681 9.21201 14.6808 4.7603 11.9571 2.04013C9.23336 -0.680043 4.77573 -0.680043 2.05199 2.04013C0.727519 3.36277 0 5.13301 0 6.99553C0 8.8764 0.727811 10.6285 2.05199 11.9509C3.43207 13.3106 5.22243 14.0001 7.01356 14.0001ZM3.72947 7.00914V8.461V8.65543H3.92382H5.34563H8.2794H8.4738V8.461V5.52541V3.37947V3.18502H8.2794H6.82747H6.63307V3.37947V6.81467H3.92382H3.72947V7.00914ZM1.83985 6.99553C1.83985 5.61698 2.38099 4.32597 3.36061 3.3477C5.36746 1.34337 8.64803 1.34062 10.6585 3.33944C10.6613 3.34219 10.6639 3.34494 10.6668 3.3477C12.676 5.3546 12.6763 8.63642 10.6668 10.6434C8.65705 12.6504 5.37031 12.6504 3.36061 10.6434C2.38099 9.66506 1.83985 8.37408 1.83985 6.99553Z"></path>
  </symbol>

  <symbol id="largeClock" viewBox="0 0 20 20" width="20" height="20" fill="currentColor" xmlns="http://www.w3.org/2000/svg">
    <path d="M10.0781 18.1562C14.5078 18.1562 18.1641 14.5 18.1641 10.0781C18.1641 5.65625 14.5 2 10.0703 2C5.64844 2 2 5.65625 2 10.0781C2 14.5 5.65625 18.1562 10.0781 18.1562ZM10.0781 16.5469C6.49219 16.5469 3.625 13.6641 3.625 10.0781C3.625 6.49219 6.49219 3.61719 10.0703 3.61719C13.6562 3.61719 16.5391 6.49219 16.5469 10.0781C16.5547 13.6641 13.6641 16.5469 10.0781 16.5469ZM6.14062 11.0625H10.0703C10.4297 11.0625 10.7031 10.7891 10.7031 10.4375V5.32812C10.7031 4.97656 10.4297 4.70312 10.0703 4.70312C9.72656 4.70312 9.45312 4.97656 9.45312 5.32812V9.8125H6.14062C5.78906 9.8125 5.51562 10.0859 5.51562 10.4375C5.51562 10.7891 5.78906 11.0625 6.14062 11.0625Z"></path>
  </symbol>
</svg>